<svg version="1.0" xmlns="http://www.w3.org/2000/svg"
 width="606.000000pt" height="946.000000pt" viewBox="0 0 606.000000 946.000000"
 preserveAspectRatio="xMidYMid meet">

<g transform="translate(0.000000,946.000000) scale(0.100000,-0.100000)"
fill="#000000" stroke="none">
<path d="M5945 7303 c-12 -197 3 -932 29 -1455 3 -67 32 -136 70 -168 26 -21
20 7 -13 59 -28 45 -29 49 -40 271 -21 413 -33 973 -26 1198 4 141 3 222 -3
222 -6 0 -13 -57 -17 -127z"/>
<path d="M5014 7368 c3 -18 8 -361 12 -763 3 -401 8 -737 11 -745 4 -13 6 -12
12 2 5 14 43 -21 178 -165 94 -100 231 -245 305 -321 l133 -139 -8 -131 c-9
-142 -1 -1503 12 -1936 4 -146 7 -265 7 -266 -1 0 -211 1 -467 4 l-466 4 -7
1457 c-9 2146 -17 3001 -28 3001 -10 0 -5 -2262 8 -3753 l6 -709 -166 7 c-141
7 -169 5 -184 -7 -20 -19 -440 -278 -448 -278 -8 0 4 2790 12 3023 6 157 7
167 26 167 11 0 33 13 49 29 90 90 -42 217 -140 135 -26 -21 -31 -33 -31 -69
0 -36 5 -48 30 -68 16 -14 33 -27 38 -29 4 -1 5 -345 1 -763 -4 -418 -8 -1139
-8 -1601 l-1 -841 -40 -27 c-22 -14 -40 -33 -40 -41 0 -28 28 -27 72 3 24 16
149 95 280 175 l236 146 826 -6 826 -6 0 21 c0 22 -2 22 -178 22 l-179 0 -6
198 c-27 821 -31 1949 -8 2096 l8 49 -171 176 c-94 97 -240 249 -323 338
l-153 163 0 528 c0 684 -8 952 -28 952 -11 0 -13 -8 -8 -32z"/>
<path d="M4349 7353 c0 -4 -1 -138 -2 -297 l-2 -290 -300 -289 c-451 -434
-506 -489 -502 -500 2 -6 68 52 148 129 217 209 557 533 622 593 l57 54 0 298
c0 188 -4 300 -10 304 -5 3 -10 3 -11 -2z"/>
<path d="M3520 5363 c0 -372 3 -564 10 -557 7 7 14 786 10 1112 0 6 -4 12 -10
12 -7 0 -10 -196 -10 -567z"/>
<path d="M4959 5531 c-42 -43 -41 -101 4 -145 17 -18 38 -35 45 -37 14 -5 15
-30 31 -1132 4 -306 11 -560 14 -564 4 -3 10 -4 13 0 3 3 2 304 -4 669 -5 365
-9 744 -8 843 1 175 2 180 22 183 37 5 76 56 76 97 0 98 -125 154 -193 86z"/>
<path d="M4446 4995 c-46 -16 -65 -40 -66 -81 0 -33 34 -74 63 -74 16 0 17
-46 17 -635 0 -417 3 -635 10 -635 7 0 10 217 10 630 l0 630 34 14 c61 25 83
83 49 125 -26 31 -72 41 -117 26z"/>
<path d="M3492 4773 c-17 -6 -42 -57 -42 -83 0 -33 53 -80 90 -80 69 0 104 86
59 144 -16 20 -29 26 -57 25 -20 0 -43 -3 -50 -6z"/>
<path d="M5169 3536 c52 -52 98 -93 103 -90 4 3 9 -107 10 -243 2 -159 7 -247
13 -245 6 1 9 87 6 242 l-4 240 -94 92 c-52 51 -102 95 -111 96 -9 2 25 -39
77 -92z"/>
<path d="M4410 3583 c-11 -14 -92 -100 -179 -190 l-159 -164 -7 -212 c-5 -145
-4 -209 3 -202 6 6 14 95 18 204 l7 194 178 190 c99 105 179 194 179 199 0 16
-19 7 -40 -19z"/>
<path d="M1898 2440 l-30 -31 -457 7 -456 7 -131 -96 -131 -97 -347 0 c-190 0
-346 -4 -346 -9 0 -13 681 -20 705 -7 11 6 70 48 132 94 l113 82 460 0 c412 0
460 -2 460 -16 0 -23 55 -74 80 -74 12 0 35 13 51 29 37 38 39 82 4 116 -33
34 -70 32 -107 -5z"/>
<path d="M2784 2379 c-18 -21 -352 -318 -493 -439 -35 -30 -134 -109 -219
-176 l-154 -121 -112 -6 c-61 -4 -403 -12 -759 -19 l-649 -12 -16 21 c-26 32
-60 46 -98 39 -78 -15 -87 -113 -14 -151 45 -23 78 -19 113 17 l32 32 415 7
c228 5 559 8 735 8 176 0 330 1 342 1 13 0 66 38 132 95 112 97 251 206 557
437 168 126 173 130 196 114 33 -24 64 -20 100 13 28 25 33 36 32 72 -1 33 -8
48 -28 66 -35 30 -86 31 -112 2z"/>
<path d="M3787 2144 c-17 -18 -3 -41 41 -71 26 -17 180 -116 342 -219 162
-102 306 -195 319 -205 23 -18 57 -19 797 -19 l774 0 0 30 0 30 -763 2 -762 3
-105 64 c-58 36 -218 136 -357 223 -267 168 -275 172 -286 162z"/>
<path d="M1472 2080 c-12 -5 -30 -25 -39 -45 l-17 -35 -688 0 c-544 0 -688 -3
-688 -12 0 -10 143 -12 689 -10 688 4 689 4 696 -17 10 -33 54 -61 94 -61 70
0 113 58 91 125 -18 54 -78 78 -138 55z"/>
<path d="M2890 1368 c0 -8 9 -21 20 -31 18 -15 76 -17 698 -22 372 -3 880 -7
1127 -9 l450 -5 184 -91 c183 -92 184 -92 245 -86 33 3 148 5 254 5 l192 1 0
25 0 25 -245 0 -246 0 -106 50 c-59 28 -141 70 -182 94 l-76 43 -1157 7 c-967
6 -1158 5 -1158 -6z"/>
<path d="M907 1236 c-14 -13 -29 -36 -33 -50 l-6 -26 -404 0 c-263 0 -404 -3
-404 -10 0 -7 142 -10 405 -10 241 0 405 -4 405 -9 0 -5 12 -23 26 -40 35 -42
98 -44 137 -5 33 33 41 57 33 99 -14 71 -106 100 -159 51z"/>
<path d="M3920 784 c-8 -1 -681 -8 -1495 -13 -2099 -15 -2327 -19 -2323 -40 2
-9 16 -18 36 -21 18 -3 33 -9 33 -15 -1 -10 115 -8 132 2 13 8 1610 25 2732
29 l1040 4 60 -68 c33 -38 178 -202 323 -365 l263 -297 337 2 337 2 -309 5
-309 6 -46 51 c-25 28 -170 187 -321 354 -151 167 -286 318 -299 336 -24 34
-25 34 -100 33 -42 -1 -83 -3 -91 -5z"/>
<path d="M1353 408 c-12 -6 -29 -26 -38 -44 -14 -30 -14 -37 -1 -69 l15 -35
-71 -123 c-39 -67 -72 -125 -75 -130 -2 -4 11 -7 29 -7 32 0 34 3 96 126 43
83 71 128 85 133 54 21 82 101 47 135 -21 21 -61 27 -87 14z"/>
<path d="M2493 20 c-149 -15 -5 -20 593 -20 429 1 653 4 642 10 -17 11 -1142
19 -1235 10z"/>
<path d="M43 3 c9 -2 25 -2 35 0 9 3 1 5 -18 5 -19 0 -27 -2 -17 -5z"/>
</g>
</svg>
