<svg version="1.0" xmlns="http://www.w3.org/2000/svg"
 width="606.000000pt" height="946.000000pt" viewBox="0 0 606.000000 946.000000"
 preserveAspectRatio="xMidYMid meet">

<g transform="translate(0.000000,946.000000) scale(0.100000,-0.100000)"
fill="#000000" stroke="none">
<path d="M974 9451 l309 -6 46 -51 c25 -28 170 -187 321 -354 151 -167 286
-318 300 -337 l24 -35 171 6 c93 3 800 11 1570 16 2020 14 2247 18 2243 39 -2
9 -16 18 -36 21 -18 3 -33 10 -33 15 1 10 -115 8 -132 -2 -13 -8 -1610 -25
-2732 -29 l-1040 -4 -60 68 c-33 38 -178 202 -323 365 l-263 297 -337 -2 -337
-2 309 -5z"/>
<path d="M2332 9449 c26 -15 1257 -16 1283 -1 15 9 -137 11 -640 11 -442 0
-654 -3 -643 -10z"/>
<path d="M4752 9334 c-43 -83 -71 -128 -85 -133 -72 -28 -85 -127 -20 -152 38
-14 78 5 98 47 14 30 14 37 1 69 l-15 35 71 123 c39 67 72 125 75 130 2 4 -11
7 -29 7 -32 0 -34 -3 -96 -126z"/>
<path d="M5983 9453 c9 -2 25 -2 35 0 9 3 1 5 -18 5 -19 0 -27 -2 -17 -5z"/>
<path d="M5027 8374 c-33 -33 -41 -57 -33 -99 19 -98 167 -98 192 -1 l6 26
404 0 c263 0 404 3 404 10 0 7 -142 10 -405 10 -241 0 -405 4 -405 9 0 5 -12
23 -26 40 -35 42 -98 44 -137 5z"/>
<path d="M203 8332 l-203 -2 0 -25 0 -25 245 0 246 0 106 -50 c59 -28 141 -70
182 -94 l76 -43 1158 -7 c1228 -8 1190 -9 1137 37 -18 15 -76 17 -698 22 -372
3 -879 7 -1127 9 l-450 5 -182 91 c-169 83 -187 90 -235 88 -29 -2 -144 -4
-255 -6z"/>
<path d="M5677 7928 l-32 -32 -415 -7 c-228 -5 -559 -8 -735 -8 -176 0 -330
-1 -342 -1 -13 0 -66 -38 -132 -95 -112 -97 -251 -206 -557 -437 -168 -126
-173 -130 -196 -114 -33 24 -64 20 -100 -13 -28 -25 -33 -36 -32 -72 1 -33 8
-48 28 -66 35 -30 86 -31 112 -2 18 21 352 318 493 439 35 30 134 109 219 176
l154 121 112 6 c61 4 403 12 759 19 l649 12 16 -21 c26 -32 60 -46 98 -39 78
15 87 113 14 151 -45 23 -78 19 -113 -17z"/>
<path d="M0 7800 l0 -30 763 -2 762 -3 105 -64 c58 -36 219 -136 359 -224 139
-88 261 -160 270 -161 9 0 17 8 19 19 3 23 17 14 -388 271 -162 102 -306 195
-319 205 -23 18 -57 19 -797 19 l-774 0 0 -30z"/>
<path d="M4484 7545 c-58 -40 -51 -132 12 -162 51 -25 103 -9 129 39 l20 38
688 0 c543 0 687 3 687 13 0 9 -143 11 -689 9 -688 -4 -689 -4 -696 17 -16 53
-104 79 -151 46z"/>
<path d="M5355 7248 c-11 -7 -70 -50 -132 -95 l-113 -83 -460 0 c-412 0 -460
2 -460 16 0 23 -55 74 -80 74 -12 0 -35 -13 -51 -29 -37 -38 -39 -82 -4 -116
33 -34 70 -32 107 5 l30 31 457 -7 456 -7 131 96 131 97 347 0 c224 0 346 4
346 10 0 6 -86 10 -238 10 -132 0 -286 2 -343 5 -75 4 -110 2 -124 -7z"/>
<path d="M2180 6921 c-14 -10 -138 -89 -277 -175 l-251 -155 -826 6 -826 6 0
-21 c0 -22 2 -22 178 -22 l179 0 6 -197 c27 -822 31 -1950 8 -2097 l-8 -49
171 -176 c94 -97 240 -249 324 -338 l152 -163 0 -528 c0 -684 8 -952 28 -952
11 0 13 8 8 32 -3 18 -8 362 -12 763 -3 402 -8 737 -11 745 -4 13 -6 12 -12
-2 -5 -14 -43 21 -178 165 -94 100 -231 245 -305 321 l-133 139 8 131 c9 142
1 1503 -12 1936 -4 146 -7 265 -7 266 1 0 211 -1 467 -4 l466 -4 7 -1457 c9
-2146 17 -3001 28 -3001 10 0 5 2262 -8 3753 l-6 709 166 -7 c141 -7 169 -5
184 7 20 19 440 278 448 278 8 0 -4 -2790 -12 -3022 -6 -158 -7 -168 -26 -168
-11 0 -33 -13 -49 -29 -90 -90 42 -217 140 -135 26 21 31 33 31 69 0 36 -5 48
-30 68 -16 14 -33 27 -38 29 -4 1 -5 345 -1 763 4 418 8 1139 8 1601 l1 841
41 27 c25 17 39 33 37 44 -5 24 -29 25 -58 3z"/>
<path d="M1987 6642 c-3 -4 -8 -95 -13 -202 l-7 -194 -155 -166 c-207 -220
-206 -219 -199 -226 3 -3 61 52 128 122 68 71 151 157 185 191 l62 62 7 210
c7 192 5 226 -8 203z"/>
<path d="M758 6504 c-3 -3 -3 -113 0 -245 l5 -239 94 -93 c52 -50 102 -94 111
-95 9 -2 -25 39 -77 92 -52 52 -98 93 -103 90 -4 -3 -8 105 -8 240 0 218 -4
268 -22 250z"/>
<path d="M1580 5260 l0 -630 -34 -14 c-86 -36 -86 -131 0 -155 37 -10 99 8
119 36 33 42 1 123 -48 123 -16 0 -17 46 -17 635 0 417 -3 635 -10 635 -7 0
-10 -217 -10 -630z"/>
<path d="M997 5268 c4 -299 8 -680 8 -848 0 -303 0 -305 -21 -308 -37 -5 -76
-56 -76 -97 0 -98 125 -154 193 -86 42 43 41 101 -3 145 -18 18 -39 35 -46 37
-15 5 -17 58 -26 924 -7 592 -14 775 -27 775 -6 0 -7 -205 -2 -542z"/>
<path d="M2465 4825 c-51 -50 -18 -145 50 -145 47 0 64 8 80 41 22 42 18 67
-14 100 -38 37 -82 39 -116 4z"/>
<path d="M2528 4654 c-9 -13 -12 -1114 -3 -1122 3 -3 7 -3 10 0 3 3 4 259 3
569 -2 310 -6 559 -10 553z"/>
<path d="M0 3780 c0 -7 13 -34 29 -59 28 -45 29 -49 40 -271 21 -413 33 -973
26 -1197 -4 -142 -3 -223 3 -223 32 0 26 827 -12 1582 -2 49 -10 78 -29 110
-30 51 -57 78 -57 58z"/>
<path d="M2369 3354 c-217 -209 -557 -533 -622 -594 l-57 -53 2 -299 c2 -170
7 -297 12 -296 5 2 9 131 10 292 l1 290 300 289 c451 434 506 489 502 500 -2
6 -68 -52 -148 -129z"/>
</g>
</svg>
